<svg width="160" height="53" viewBox="0 0 160 53" fill="none" xmlns="http://www.w3.org/2000/svg">
<g clip-path="url(#clip0_689_8992)">
<path d="M56.4908 32.1231C56.3732 32.1245 56.257 32.1023 56.1489 32.0578C56.0404 32.0132 55.9417 31.9472 55.8589 31.8638C55.7761 31.7803 55.7105 31.681 55.6663 31.5717C55.6221 31.4624 55.5998 31.3453 55.6015 31.2273V16.1688L49.1822 25.7781C49.1003 25.8987 48.9905 25.9973 48.8622 26.0654C48.734 26.1336 48.5911 26.1692 48.4461 26.1692C48.3012 26.1692 48.1587 26.1336 48.0305 26.0654C47.9022 25.9973 47.7924 25.8987 47.7105 25.7781L41.3217 16.1713V31.2299C41.3309 31.3528 41.3148 31.4764 41.2745 31.5928C41.2341 31.7093 41.1703 31.8161 41.087 31.9065C41.0038 31.997 40.9029 32.0691 40.7908 32.1185C40.6786 32.1678 40.5575 32.1933 40.435 32.1933C40.3126 32.1933 40.1915 32.1678 40.0793 32.1185C39.9671 32.0691 39.8663 31.997 39.783 31.9065C39.6998 31.8161 39.636 31.7093 39.5957 31.5928C39.5552 31.4764 39.5392 31.3528 39.5484 31.2299V13.2719C39.5471 13.0771 39.6086 12.8871 39.7237 12.7306C39.8389 12.5741 40.0014 12.4595 40.1868 12.4041C40.3646 12.348 40.5559 12.3526 40.7309 12.4172C40.9059 12.4818 41.0547 12.6028 41.1545 12.7615L48.4603 23.6699L55.7306 12.7615C55.8375 12.5982 55.994 12.4742 56.1768 12.408C56.3591 12.3417 56.5581 12.3368 56.7438 12.3939C56.9266 12.4541 57.0857 12.57 57.2003 12.7254C57.3144 12.8809 57.3783 13.0683 57.3821 13.2617V31.2273C57.3808 31.4649 57.2865 31.6924 57.1196 31.8602C56.9523 32.0279 56.7263 32.1225 56.4908 32.1231Z" fill="#440F7C"/>
<path d="M74.1216 17.9452V33.1212C74.1216 36.4391 71.725 39.3436 68.4573 39.7571C67.1631 39.9233 65.8492 39.6945 64.6855 39.1002C63.5217 38.506 62.5617 37.5737 61.9294 36.4238C61.8188 36.216 61.7947 35.9725 61.8625 35.7468C61.9303 35.5211 62.0839 35.3317 62.2902 35.2204C62.4965 35.109 62.7384 35.0848 62.9624 35.153C63.1863 35.2212 63.3742 35.3763 63.4848 35.5841C63.9099 36.3504 64.5371 36.9832 65.2972 37.4125C66.0573 37.8418 66.9203 38.0508 67.7911 38.0164C70.3545 37.9245 72.3509 35.7194 72.3509 33.1212C72.3509 32.8686 72.2895 32.62 72.172 32.3969C72.0549 32.1738 71.885 31.9831 71.6774 31.8413C71.4702 31.6996 71.2313 31.6112 70.9825 31.5838C70.7333 31.5564 70.4811 31.5909 70.2481 31.6842C69.5292 31.9708 68.7622 32.1171 67.9888 32.1155C64.4903 32.1155 61.8231 29.308 61.8231 25.5664V17.9452C61.8235 17.7093 61.9123 17.4822 62.071 17.3091C62.2301 17.1361 62.448 17.0296 62.6818 17.0111C62.7994 17.0049 62.9165 17.0226 63.0271 17.0633C63.1378 17.104 63.239 17.1667 63.3248 17.2477C63.4106 17.3288 63.4793 17.4264 63.5269 17.5349C63.5745 17.6433 63.5998 17.7603 63.6011 17.8788V25.574C63.6011 28.2871 65.491 30.3315 67.9888 30.3315C70.4866 30.3315 72.3509 28.2896 72.3509 25.574V17.8788C72.3526 17.7603 72.3779 17.6433 72.4251 17.5349C72.4727 17.4264 72.5413 17.3288 72.6276 17.2477C72.7133 17.1667 72.8146 17.104 72.9248 17.0633C73.0355 17.0226 73.153 17.0049 73.2706 17.0111C73.5026 17.0309 73.7192 17.1379 73.8767 17.3109C74.0345 17.484 74.1216 17.7103 74.1216 17.9452Z" fill="#440F7C"/>
<path d="M94.2023 30.6658C94.2761 30.7574 94.3314 30.863 94.3644 30.9762C94.397 31.0895 94.4073 31.2082 94.3945 31.3255C94.3816 31.4429 94.3456 31.5564 94.2885 31.6596C94.2319 31.7628 94.1551 31.8535 94.0633 31.9266C93.9076 32.0573 93.7107 32.127 93.5082 32.1231C93.3753 32.1206 93.2444 32.0891 93.1248 32.031C93.0051 31.9728 92.8991 31.8894 92.8142 31.7862L86.4811 23.67L80.148 31.7862C80.0751 31.8784 79.985 31.9551 79.8825 32.0121C79.7804 32.069 79.6676 32.105 79.5513 32.118C79.4351 32.1311 79.3176 32.1209 79.2052 32.0881C79.0928 32.0552 78.9881 32.0003 78.8968 31.9266C78.7179 31.7744 78.6034 31.5588 78.5776 31.3242C78.5515 31.0896 78.6158 30.8539 78.7574 30.6658L85.3693 22.2432L78.7599 13.7823C78.6836 13.6909 78.6265 13.5848 78.5918 13.4706C78.5575 13.3564 78.5459 13.2363 78.5583 13.1175C78.5708 12.9987 78.6068 12.8837 78.6647 12.7793C78.7222 12.6749 78.8003 12.5833 78.8938 12.5099C78.9873 12.4366 79.0945 12.383 79.2095 12.3525C79.324 12.3219 79.4433 12.3149 79.5608 12.3319C79.6783 12.349 79.7907 12.3897 79.8924 12.4516C79.9936 12.5136 80.0815 12.5955 80.1506 12.6925L86.4837 20.7782L92.8168 12.6925C92.9635 12.5079 93.175 12.3874 93.4079 12.3561C93.6404 12.3247 93.8759 12.3848 94.0655 12.5241C94.1577 12.5969 94.234 12.6874 94.2911 12.7904C94.3481 12.8934 94.3837 13.0067 94.397 13.1238C94.4099 13.2409 94.3996 13.3594 94.3666 13.4725C94.3336 13.5856 94.2787 13.6909 94.2049 13.7823L87.6187 22.233L94.2023 30.6658Z" fill="#440F7C"/>
<path d="M2.50278 52.174C3.87245 52.174 4.98281 51.0552 4.98281 49.6752C4.98281 48.2951 3.87245 47.1764 2.50278 47.1764C1.13311 47.1764 0.0227661 48.2951 0.0227661 49.6752C0.0227661 51.0552 1.13311 52.174 2.50278 52.174Z" fill="#440F7C"/>
<path d="M13.6845 39.9025C15.0542 39.9025 16.1645 38.7838 16.1645 37.4038C16.1645 36.0238 15.0542 34.9051 13.6845 34.9051C12.3148 34.9051 11.2045 36.0238 11.2045 37.4038C11.2045 38.7838 12.3148 39.9025 13.6845 39.9025Z" fill="#440F7C"/>
<path d="M24.866 27.6337C26.2356 27.6337 27.346 26.515 27.346 25.135C27.346 23.755 26.2356 22.6363 24.866 22.6363C23.4963 22.6363 22.386 23.755 22.386 25.135C22.386 26.515 23.4963 27.6337 24.866 27.6337Z" fill="#440F7C"/>
<path d="M2.4902 40.8546C3.85988 40.8546 4.97023 39.7359 4.97023 38.3559C4.97023 36.9759 3.85988 35.8571 2.4902 35.8571C1.12053 35.8571 0.0101929 36.9759 0.0101929 38.3559C0.0101929 39.7359 1.12053 40.8546 2.4902 40.8546Z" fill="#D62196"/>
<path d="M13.6743 28.5857C15.044 28.5857 16.1543 27.467 16.1543 26.087C16.1543 24.707 15.044 23.5883 13.6743 23.5883C12.3046 23.5883 11.1943 24.707 11.1943 26.087C11.1943 27.467 12.3046 28.5857 13.6743 28.5857Z" fill="#D62196"/>
<path d="M24.8559 16.3142C26.2255 16.3142 27.3358 15.1955 27.3358 13.8155C27.3358 12.4355 26.2255 11.3168 24.8559 11.3168C23.4862 11.3168 22.3759 12.4355 22.3759 13.8155C22.3759 15.1955 23.4862 16.3142 24.8559 16.3142Z" fill="#D62196"/>
<path d="M2.48001 29.5376C3.84968 29.5376 4.96004 28.4189 4.96004 27.039C4.96004 25.659 3.84968 24.5403 2.48001 24.5403C1.11034 24.5403 0 25.659 0 27.039C0 28.4189 1.11034 29.5376 2.48001 29.5376Z" fill="#440F7C"/>
<path d="M13.6616 17.2688C15.0313 17.2688 16.1416 16.1501 16.1416 14.7701C16.1416 13.3901 15.0313 12.2714 13.6616 12.2714C12.2919 12.2714 11.1816 13.3901 11.1816 14.7701C11.1816 16.1501 12.2919 17.2688 13.6616 17.2688Z" fill="#440F7C"/>
<path d="M24.8432 4.99737C26.2128 4.99737 27.3232 3.87868 27.3232 2.49869C27.3232 1.1187 26.2128 0 24.8432 0C23.4735 0 22.3632 1.1187 22.3632 2.49869C22.3632 3.87868 23.4735 4.99737 24.8432 4.99737Z" fill="#440F7C"/>
<path d="M110.901 17.5751V31.1507C110.908 31.2743 110.889 31.3979 110.847 31.514C110.804 31.63 110.739 31.7362 110.654 31.8259C110.57 31.9157 110.468 31.9872 110.355 32.036C110.243 32.0849 110.121 32.1101 109.998 32.1101C109.875 32.1101 109.754 32.0849 109.641 32.036C109.528 31.9872 109.427 31.9157 109.342 31.8259C109.258 31.7362 109.192 31.63 109.15 31.514C109.107 31.3979 109.089 31.2743 109.095 31.1507V29.5581C108.431 30.3541 107.6 30.9916 106.661 31.4246C105.723 31.8576 104.701 32.0753 103.669 32.0619C99.5728 32.0619 96.4672 28.7618 96.4672 24.377C96.4672 19.9921 99.5728 16.692 103.669 16.692C104.698 16.6798 105.717 16.8952 106.655 17.3229C107.592 17.7506 108.426 18.3804 109.095 19.1677V17.5751C109.108 17.3421 109.208 17.1227 109.376 16.9622C109.544 16.8016 109.766 16.7121 109.998 16.7121C110.23 16.7121 110.452 16.8016 110.62 16.9622C110.789 17.1227 110.889 17.3421 110.901 17.5751ZM109.095 24.377C109.095 21.0181 106.777 18.4863 103.669 18.4863C100.561 18.4863 98.2731 21.0181 98.2731 24.377C98.2731 27.7358 100.591 30.2472 103.669 30.2472C106.747 30.2472 109.095 27.7077 109.095 24.377Z" fill="#440F7C"/>
<path d="M116.242 12.8788V31.1507C116.242 31.3924 116.146 31.6241 115.976 31.795C115.807 31.9659 115.577 32.0619 115.337 32.0619C115.097 32.0619 114.867 31.9659 114.698 31.795C114.528 31.6241 114.433 31.3924 114.433 31.1507V12.8788C114.433 12.6372 114.528 12.4054 114.698 12.2345C114.867 12.0636 115.097 11.9677 115.337 11.9677C115.577 11.9677 115.807 12.0636 115.976 12.2345C116.146 12.4054 116.242 12.6372 116.242 12.8788Z" fill="#440F7C"/>
<path d="M133.926 17.575V31.1506C133.926 31.3923 133.83 31.624 133.661 31.7949C133.491 31.9658 133.261 32.0618 133.021 32.0618C132.781 32.0618 132.552 31.9658 132.382 31.7949C132.212 31.624 132.117 31.3923 132.117 31.1506V29.558C131.453 30.354 130.623 30.9915 129.684 31.4245C128.747 31.8575 127.725 32.0752 126.693 32.0618C122.597 32.0618 119.489 28.7617 119.489 24.3769C119.489 19.992 122.607 16.6919 126.693 16.6919C127.722 16.6797 128.741 16.8951 129.678 17.3229C130.615 17.7506 131.448 18.3804 132.117 19.1676V17.575C132.117 17.3333 132.212 17.1016 132.382 16.9307C132.552 16.7599 132.781 16.6638 133.021 16.6638C133.261 16.6638 133.491 16.7599 133.661 16.9307C133.83 17.1016 133.926 17.3333 133.926 17.575ZM132.117 24.3769C132.117 21.0181 129.802 18.4862 126.693 18.4862C123.585 18.4862 121.298 21.0181 121.298 24.3769C121.298 27.7357 123.613 30.2471 126.693 30.2471C129.774 30.2471 132.117 27.7076 132.117 24.3769Z" fill="#440F7C"/>
<path d="M144.377 17.5751C144.379 17.6952 144.356 17.8143 144.311 17.9254C144.267 18.0366 144.2 18.1376 144.116 18.2225C144.032 18.3074 143.931 18.3744 143.821 18.4198C143.71 18.465 143.592 18.4877 143.473 18.4863C140.988 18.4863 139.096 20.5281 139.096 23.2387V31.1508C139.109 31.2761 139.096 31.4029 139.058 31.5228C139.019 31.6427 138.956 31.7532 138.873 31.8469C138.789 31.9407 138.687 32.0156 138.572 32.067C138.458 32.1183 138.334 32.1448 138.209 32.1448C138.084 32.1448 137.96 32.1183 137.846 32.067C137.732 32.0156 137.63 31.9407 137.546 31.8469C137.462 31.7532 137.399 31.6427 137.361 31.5228C137.322 31.4029 137.309 31.2761 137.323 31.1508V17.5751C137.346 17.3547 137.449 17.1507 137.613 17.0025C137.777 16.8544 137.989 16.7724 138.209 16.7724C138.429 16.7724 138.641 16.8544 138.805 17.0025C138.969 17.1507 139.073 17.3547 139.096 17.5751V18.5144C139.665 17.9285 140.347 17.465 141.099 17.1518C141.852 16.8386 142.659 16.6822 143.473 16.692C143.59 16.6897 143.707 16.7107 143.816 16.7539C143.924 16.7971 144.024 16.8616 144.108 16.9437C144.192 17.0258 144.259 17.1239 144.305 17.2322C144.352 17.3407 144.376 17.4572 144.377 17.5751Z" fill="#440F7C"/>
<path d="M160 17.644V33.116C160 36.605 157.378 39.5886 153.92 39.8694C152.65 39.9726 151.377 39.7047 150.254 39.0977C149.13 38.4906 148.205 37.5702 147.587 36.4467C147.489 36.2366 147.474 35.9963 147.546 35.7755C147.618 35.5547 147.772 35.3702 147.975 35.2604C148.178 35.1506 148.416 35.1237 148.639 35.1854C148.861 35.247 149.051 35.3925 149.171 35.5917C149.594 36.3553 150.215 36.9889 150.967 37.4248C151.72 37.8608 152.576 38.0829 153.444 38.0674C154.718 38.034 155.927 37.4985 156.813 36.5759C157.699 35.6534 158.19 34.4174 158.181 33.1339C158.18 32.8712 158.116 32.6127 157.993 32.3809C157.871 32.1491 157.693 31.9512 157.477 31.8044C157.261 31.6576 157.012 31.5664 156.753 31.5388C156.494 31.5111 156.232 31.5479 155.99 31.6459C155.274 31.9238 154.513 32.0649 153.745 32.0619C150.186 32.0619 147.476 29.2161 147.476 25.403V17.644C147.474 17.5192 147.498 17.3955 147.544 17.2799C147.591 17.1642 147.66 17.0591 147.747 16.9705C147.834 16.882 147.938 16.8117 148.052 16.7639C148.167 16.7161 148.289 16.6916 148.413 16.692C148.644 16.696 148.863 16.7905 149.026 16.9555C149.188 17.1205 149.28 17.3428 149.282 17.5751V25.403C149.282 28.162 151.205 30.2523 153.745 30.2523C156.286 30.2523 158.181 28.1722 158.181 25.403V17.5751C158.184 17.3426 158.276 17.1202 158.439 16.9553C158.602 16.7905 158.822 16.6959 159.052 16.692C159.177 16.6903 159.301 16.7137 159.417 16.7609C159.532 16.8081 159.637 16.8782 159.725 16.9669C159.814 17.0556 159.883 17.1612 159.93 17.2775C159.978 17.3938 160.001 17.5184 160 17.644Z" fill="#440F7C"/>
</g>
<defs>
<clipPath id="clip0_689_8992">
<rect width="160" height="52.174" fill="white"/>
</clipPath>
</defs>
</svg>
